<svg xmlns="http://www.w3.org/2000/svg" width="190" height="190" viewBox="0 0 190 190"><defs><style>.a{isolation:isolate;}.b{fill:#ee6f48;}.c{fill:#fff6f3;}.d{fill:#fffefe;}.e{fill:#fcdbcc;}.f{fill:#f8ba9d;}.g{fill:#fbd7c5;}.h{fill:#f8b89b;}.i{fill:#fcdac9;}.j{fill:#fff;}</style></defs><g class="a" transform="translate(0.018 0)"><circle class="b" cx="95" cy="95" r="95" transform="translate(-0.018 0)"/><g transform="translate(58.746 42.951)"><path class="c" d="M14.692,44.329A32.349,32.349,0,0,1,54.977,14.116h.592c1.185.592,2.962,1.185,4.147,1.777a31.856,31.856,0,0,1,19.55,33.175c-1.777,13.626-9.479,23.1-22.512,27.251a2.176,2.176,0,0,0-1.777.592h-.592a47.884,47.884,0,0,1-9.479.592C30.1,76.912,16.47,65.656,14.692,50.846c0-1.185-.592-2.962-.592-4.147A3.562,3.562,0,0,1,14.692,44.329Z" transform="translate(-2.69 5.434)"/><path class="d" d="M23.985,17.109c-.592,0-1.185-.592-1.777-.592a3.614,3.614,0,0,1-1.777-4.147c.592-1.777,1.777-2.37,3.554-2.37s2.962,1.185,3.554,2.962-.592,2.962-1.777,4.147c0-.592-.592,0-1.777,0Z" transform="translate(27.709 -10)"/><path class="d" d="M19.437,22.232c-.592,1.777-1.777,2.962-3.554,2.962s-3.554-1.185-3.554-2.962a3.369,3.369,0,0,1,2.37-4.147c1.777-.592,3.554,0,4.147,1.777,0,.592.592,1.185.592,1.777Z" transform="translate(-12.174 28.716)"/><path class="d" d="M24.148,26.1q3.554.889,3.554,3.554c0,1.777-1.185,2.962-2.962,3.554a3.369,3.369,0,0,1-4.147-2.37c-.592-1.777,0-3.555,1.185-4.147a2.176,2.176,0,0,1,1.777-.592Z" transform="translate(28.139 69.279)"/><path class="e" d="M21.492,36.933H20.9V23.9h.592Z" transform="translate(30.794 58.446)"/><path class="e" d="M20.9,11.2h0a87.492,87.492,0,0,1,.592,12.441H20.9Z" transform="translate(30.794 -4.091)"/><path class="f" d="M13.4,19.585v-.592h2.962a2.068,2.068,0,0,0,1.185-.592v2.37c-.592-.592-.592-1.185-1.185-.592C15.177,20.177,14.585,19.585,13.4,19.585Z" transform="translate(-6.137 31.363)"/><path class="b" d="M34.614,13.5c10.071,3.554,17.772,10.071,21.327,20.142a31.341,31.341,0,0,1-19.55,39.692c-.592,0-1.185.592-1.777.592h-.592a3.562,3.562,0,0,1-.592-2.37v-7.7c0-2.37-.592-4.147-2.962-5.332-.592-.592-2.37-1.185-.592-2.37,1.777-1.777,1.777-1.777-.592-2.962-2.962-.592-5.924-1.777-8.294-2.37a3.078,3.078,0,0,1-2.37-1.185c-.592-4.147,0-8.886,0-13.033,0-1.185,1.185-1.777,1.777-2.37,4.147-2.37,7.7-4.739,11.848-6.517a3.258,3.258,0,0,0,1.777-2.962V15.87a1.465,1.465,0,0,1,.592-2.37Z" transform="translate(18.265 7.235)"/><path class="b" d="M14.3,44.167c0-10.663,4.739-18.957,13.033-24.881a29.514,29.514,0,0,1,24.289-5.332,3.562,3.562,0,0,1,2.37.592c.592,4.147,0,8.294,0,12.441,0,1.185-.592,1.185-1.185,1.777-4.147,2.37-7.7,4.739-11.848,7.109-1.777,1.185-2.37.592-2.37-1.185V30.542A2.176,2.176,0,0,0,38,28.764c-1.777-.592-2.37.592-2.37,1.777V41.8c0,1.185,0,2.37-.592,2.962-.592,0-.592.592-1.185.592H16.67C15.485,44.76,14.892,44.76,14.3,44.167Z" transform="translate(-1.705 6.188)"/><path class="b" d="M52.907,49.306C46.39,50.49,40.466,50.49,34.542,48.121,21.509,42.789,14.4,30.348,14.4,19.092a2.176,2.176,0,0,1,1.777-.592H34.542c1.185.592,1.185,1.777,1.185,2.962V32.718c0,1.185,0,2.37,1.185,1.777,1.185,0,1.185-1.185,1.185-1.777V28.571c0-.592,0-1.185.592-1.185s1.185.592,1.777.592c1.777,2.37,2.962,4.739,4.739,7.109.592.592.592,1.777,1.777,1.185s.592-1.185.592-2.37c-.592-2.37-.592-2.37,1.185-2.37a9.548,9.548,0,0,0,4.147,2.37c.592.592,1.185.592,1.185,1.777-1.185,4.739-.592,9.479-1.185,13.626Z" transform="translate(-1.213 31.855)"/><path class="g" d="M19.285,26.533a2.176,2.176,0,0,1,.592,1.777v6.517a2.176,2.176,0,0,0,1.777-.592c4.147-2.37,7.7-4.739,11.848-7.109,1.185-.592,1.185-1.185,1.185-2.37V13.5h.592V25.348A3.258,3.258,0,0,1,33.5,28.31L21.062,35.419c-1.185.592-1.777,1.185-1.777,2.37V50.23c-1.185,0-1.185-1.185-1.185-1.777V28.9C18.692,27.718,19.285,27.126,19.285,26.533Z" transform="translate(17.007 7.235)"/><path class="h" d="M34.442,19.685H14.3V18.5H34.442C35.035,19.092,35.035,19.092,34.442,19.685Z" transform="translate(-1.705 31.855)"/><path class="i" d="M25.332,38.3V26.455c0-1.185-.592-1.777-1.777-2.37S20.592,22.9,20,21.716a1.465,1.465,0,0,1,2.37-.592c-.592,0-.592.592-1.185.592,1.185.592,1.777,1.185,2.962,1.777s1.185,1.185,1.185,2.37a43.765,43.765,0,0,1,0,12.441Z" transform="translate(26.363 42.857)"/><path class="g" d="M21.469,13.869Z" transform="translate(31.41 6.865)"/><path class="j" d="M33.7,45.913a3.562,3.562,0,0,0-2.37.592c-.592,0-1.777-.592-1.185.592,0,.592,0,.592.592,1.185.592,1.185.592,1.777-.592,2.962-.592.592-.592,1.185-1.185,1.185L21.847,41.766c-.592,0-.592.592-.592,1.185v5.924c0,1.185-.592,1.777-1.185,1.185h-.592c-1.777,0-1.777,0-1.777-1.777v-31.4A1.274,1.274,0,0,1,18.885,15.7h2.37V37.619a2.176,2.176,0,0,0,.592,1.777l12.441,3.555c1.185.592,1.185.592.592,1.777A1.274,1.274,0,0,1,33.7,45.913Z" transform="translate(15.037 18.068)"/></g></g></svg>