<svg xmlns="http://www.w3.org/2000/svg" width="191" height="191" viewBox="0 0 191 191"><defs><style>.a{fill:#f9b11e;}.b{fill:#fff;}.c{fill:#fffdf9;}.d{fill:#ffefd6;}.e{fill:#ffefd5;}.f{fill:#fffdfb;}.g{fill:#fffefb;}.h{fill:#ffe2b4;}.i{fill:#ffe5bb;}.j{fill:#ffe3b7;}.k{fill:#ffe3b6;}.l{fill:#fff0d6;}.m{fill:#fff0d8;}.n{fill:#fff0d7;}.o{fill:#ffedcf;}.p{fill:#f9b221;}.q{fill:#f9b222;}.r{fill:#fab42a;}.s{fill:#fab323;}.t{fill:#fab326;}.u{fill:#f9b323;}.v{fill:#fab324;}.w{fill:#fab325;}.x{fill:#f9b21f;}.y{fill:#fab838;}.z{fill:#fab52e;}.aa{fill:#fbb93a;}.ab{fill:#fab62f;}.ac{fill:#fab52d;}.ad{fill:#fab631;}.ae{fill:#fab734;}.af{fill:#fab733;}.ag{fill:#fab630;}.ah{fill:#fab428;}.ai{fill:#fab732;}.aj{fill:#fcc665;}.ak{fill:#fcc768;}.al{fill:#fcc766;}.am{fill:#fbbd48;}.an{fill:#fcc45e;}.ao{fill:#fdcf7e;}.ap{fill:#fed48b;}.aq{fill:#fed389;}.ar{fill:#fcc051;}.as{fill:#fdcf7f;}</style></defs><g transform="translate(0.143 0)"><circle class="a" cx="95.5" cy="95.5" r="95.5" transform="translate(-0.143 0)"/><g transform="translate(73.626 43.461)"><path class="b" d="M46.285,50.7h.594a.594.594,0,1,0,0-1.189h-5.35A1.279,1.279,0,0,0,40.34,50.7v6.539c-.594,5.35,1.189,10.7,2.378,16.051S44.5,83.393,45.691,88.744a4.541,4.541,0,0,0,1.189,2.972c1.783,4.756,4.161,8.917,5.945,13.673.594.594.594,1.783,1.783,1.783.594,0,1.189.594.594,1.189,0,.594-.594.594-1.189.594H45.691c-.594,0-1.189,0-1.189-.594s0-1.189,1.189-1.189h.594c0-.594-.594-1.189-.594-1.783L36.774,92.9c-1.783-2.378-4.161-2.378-5.945,0-3.567,4.756-6.539,9.512-10.106,14.268a2.184,2.184,0,0,0,1.783.594c.594,0,.594.594.594,1.189a.582.582,0,0,1-.594.594H13.589c-.594,0-1.189,0-1.189-.594s0-1.189.594-1.189c1.189,0,1.189-.594,1.783-1.783,2.378-4.756,4.161-9.512,6.539-14.862,1.189-2.378,1.189-5.35,1.783-8.323,1.189-5.945,2.972-11.3,4.161-17.24a16.458,16.458,0,0,0,.594-5.35V50.7c0-2.378,0-2.378-2.378-2.378H21.912a1.279,1.279,0,0,0-1.189,1.189c-.594,1.783-2.378,1.189-3.567.594,0,0-.594-.594,0-.594,0-.594,0-1.189-.594-1.189h-.594c-.594,0-1.783.594-1.783-.594a1.279,1.279,0,0,1,1.189-1.189c3.567-1.783,7.728-4.161,11.3-5.945a3.269,3.269,0,0,0,1.783-2.972V31.674a1.576,1.576,0,0,0-1.783-1.783H24.29c-.594,0-.594,0-.594.594s0,.594.594.594c1.189,0,1.783.594,1.189,1.189H24.29c-1.783-.594-4.161,0-5.945-.594a.582.582,0,0,1-.594-.594h.594c.594,0,.594,0,.594-.594s0-.594-.594-.594H17.156c-.594,0-1.189,0-1.189-.594s.594-.594,1.189-1.189l8.917-5.35c1.189-.594,1.783-1.189,1.783-2.378,1.189-1.783,2.378-4.161,3.567-5.945,1.189-1.189,1.189-2.378,1.189-4.161V8.489c0-.594,0-1.189.594-1.189s.594.594.594,1.189v.594a7.646,7.646,0,0,0,2.378,7.134c1.189,1.783,2.378,2.972,2.972,4.756,0,.594,1.189.594,1.189,1.189,2.972,1.783,5.945,2.972,8.323,4.756a2.076,2.076,0,0,1,1.189.594c.594.594.594,1.189-.594,1.189h-.594c-.594,0-.594,0-.594.594s0,.594.594.594h1.189c.594.594.594,1.189,0,1.189h-.594c-1.783-.594-3.567,0-5.945-.594a.582.582,0,0,1-.594-.594h.594c.594,0,.594,0,.594-.594a.582.582,0,0,0-.594-.594H39.152a1.279,1.279,0,0,0-1.189,1.189v7.728c0,1.189.594,1.189,1.783,1.783,3.567,1.783,7.728,4.161,11.3,5.945.594.594,1.783.594,1.783,1.189,0,1.189-1.189.594-1.783.594s-1.189,0-1.189.594.594.594,1.189.594c1.189,0,1.189.594.594,1.189H50.447c-1.783-.594-4.161,0-5.945-.594C46.285,51.291,45.691,51.291,46.285,50.7Z" transform="translate(-12.4 -7.3)"/><path class="c" d="M24.245,15.1c0,.594,0,1.189-.594,1.189-1.189,0-1.783.594-1.189,1.783,0,1.189-.594,1.189-1.189,1.189H20.083c-1.783,0-1.783,0-1.783-1.783V15.694c1.783-.594,3.567,0,4.756-.594Z" transform="translate(16.774 31.269)"/><path class="c" d="M18.95,12.965c-.594,0-1.783,0-1.189,1.189a1.576,1.576,0,0,1-1.783,1.783c-2.378,0-2.378,0-2.378-2.972v-.594a8.248,8.248,0,0,1,5.35,0Z" transform="translate(-6.466 15.57)"/><path class="c" d="M22.756,13.065v1.189c0,1.783,0,1.783-1.783,1.783s-1.783,0-2.378-1.783c0-.594,0-.594-.594-1.189v-.594a5.078,5.078,0,0,1,4.161,0C22.756,12.471,22.756,12.471,22.756,13.065Z" transform="translate(15.291 16.064)"/><path class="b" d="M17.361,16.513V17.7c0,.594,0,1.189-1.189,1.189H14.983c-1.783,0-1.783,0-1.783-1.783v-.594C14.389,14.729,16.172,14.729,17.361,16.513Z" transform="translate(-8.444 31.64)"/><path class="d" d="M18.845,17.872c-1.189-1.189-2.378-.594-4.161,0h0c-.594-.594-1.783,0-1.783-1.189s1.189-1.189,1.783-1.189a10.117,10.117,0,0,0,4.161-.594h0c0,.594.594.594,1.189.594a.594.594,0,1,1,0,1.189C19.439,17.278,18.845,17.278,18.845,17.872Z" transform="translate(-9.928 30.28)"/><path class="e" d="M14.683,15.194c1.189,0,2.378.594,3.567-.594h.594c.594,0,1.783,0,1.783,1.189s-1.189.594-1.783.594h0v-.594c-1.783,0-3.567.594-5.35,0a.582.582,0,0,1-.594-.594,1.115,1.115,0,0,1,1.783,0Z" transform="translate(-9.928 28.797)"/><path class="f" d="M17.981,12.913h0V14.1a5.027,5.027,0,0,1-4.161,0s-.594-.594,0-.594v-.594C15.009,11.129,16.2,11.129,17.981,12.913Z" transform="translate(-6.686 13.839)"/><path class="g" d="M22.681,15.642h0c-1.189,2.378-2.378,1.189-4.161,1.189,0,0-.594-.594,0-.594v-.594A2.873,2.873,0,0,1,22.681,15.642Z" transform="translate(16.554 29.539)"/><path class="f" d="M18,12.984h0c1.189-1.783,2.972-1.783,4.161-.594v1.189a5.027,5.027,0,0,1-4.161,0Z" transform="translate(15.291 13.768)"/><path class="b" d="M17.856,15.294h0c-1.189,1.783-2.378,1.783-4.161.594l-.594-.594V14.7C14.883,15.294,16.667,14.7,17.856,15.294Z" transform="translate(-8.939 29.291)"/><path class="h" d="M19.321,13.283a5.078,5.078,0,0,0-4.161,0H13.971c-.594-.594-1.189-1.189,0-1.783a.582.582,0,0,1,.594.594c2.378.594,4.161,0,6.539.594l.594.594C20.51,13.283,19.916,12.689,19.321,13.283Z" transform="translate(-8.026 13.468)"/><path class="i" d="M24.021,16.383a5.078,5.078,0,0,0-4.161,0H18.671c-.594-.594-1.189-1.189,0-1.783l.594.594c2.378.594,4.161,0,6.539.594l.594.594C25.21,16.978,24.616,16.383,24.021,16.383Z" transform="translate(15.214 28.797)"/><path class="j" d="M23.521,13.778a5.078,5.078,0,0,0-4.161,0c-.594,0-1.189,0-1.189-.594a1.115,1.115,0,0,1,0-1.783l.594.594c1.783.594,4.161,0,5.945.594l.594.594C24.71,13.778,24.116,13.183,23.521,13.778Z" transform="translate(13.931 12.974)"/><path class="k" d="M19.289,15.594c1.189,0,2.972.594,4.161-.594a2.184,2.184,0,0,1,1.783.594l-.594.594c-2.378.594-4.161,0-6.539,0C18.1,15,18.694,15,19.289,15.594Z" transform="translate(15.785 30.775)"/><path class="d" d="M18.7,12.394h0a.582.582,0,0,1,.594-.594c.594,0,1.189,0,1.189,1.189,0,.594-.594.594-1.189.594H18.7V12.394Z" transform="translate(18.752 14.952)"/><path class="l" d="M19.483,11.8h0c0,.594-.594,1.189-.594,1.783v.594c-.594,0-1.189,0-1.189-.594a1.279,1.279,0,0,1,1.189-1.189Z" transform="translate(13.807 14.952)"/><path class="m" d="M19.783,15.471c-.594,0-.594,0-1.189.594a1.841,1.841,0,0,1,1.189.594v.594h-.594c-.594,0-1.189,0-1.189-1.189s.594-1.189,1.783-.594c-.594-.594,0-.594,0,0Z" transform="translate(15.291 30.898)"/><path class="n" d="M14.983,11.8h0v1.783h-.594c-.594,0-1.189,0-1.189-1.189a2.6,2.6,0,0,1,1.783-.594Z" transform="translate(-8.444 14.952)"/><path class="o" d="M14.2,12.394h0a1.841,1.841,0,0,1,1.189-.594c1.189.594,1.189.594,0,1.783v-.594A1.841,1.841,0,0,1,14.2,12.394Z" transform="translate(-3.499 14.952)"/><path class="m" d="M14.283,15.889h0c-1.189.594-1.783.594-1.189-1.189l.594.594A.582.582,0,0,1,14.283,15.889Z" transform="translate(-10.122 29.291)"/><path class="p" d="M16.7,21.5h5.35c.594,0,1.189,0,1.189.594,2.378,4.756,4.161,9.512,6.539,14.267a3.676,3.676,0,0,1-4.161-1.189c-2.378-3.567-5.35-7.728-7.728-11.3A3.088,3.088,0,0,1,16.7,21.5Z" transform="translate(8.863 62.916)"/><path class="q" d="M26.179,21.5a3.089,3.089,0,0,1-1.189,2.378c-2.378,3.567-5.35,7.728-7.728,11.3-1.189,1.783-2.378,2.378-4.161,1.783,0-.594.594-1.189.594-1.783a91.463,91.463,0,0,0,4.756-11.3,2.746,2.746,0,0,1,2.972-1.783A13.089,13.089,0,0,1,26.179,21.5Z" transform="translate(-8.939 62.916)"/><path class="q" d="M29.562,22.372c-2.378,1.189-4.161,1.783-6.539,2.972H21.239c-2.378-1.189-4.161-1.783-6.539-2.972A66.671,66.671,0,0,1,22.428,19.4h1.189c1.783.594,4.161,1.189,5.945,2.972Z" transform="translate(-1.027 52.532)"/><path class="q" d="M24.094,14.767h0a32.671,32.671,0,0,1-4.161,5.35c-.594.594-.594,0-1.189-.594a18.065,18.065,0,0,1-2.972-4.161c-.594-.594-.594-1.189,0-1.189l2.378-2.378c.594-.594,1.189-.594,2.378-.594l3.567,3.567Z" transform="translate(2.063 11.985)"/><path class="r" d="M20.056,8.7c1.189,2.378,2.972,4.161,4.161,6.539-1.783.594-5.945.594-8.917.594A24.872,24.872,0,0,1,20.056,8.7Z" transform="translate(1.94 -0.377)"/><path class="s" d="M15.1,20.825c7.134-3.567,4.161-3.567,11.3,0C22.828,23.8,19.856,23.8,15.1,20.825Z" transform="translate(0.951 46.351)"/><path class="t" d="M17.1,13.1c3.567,1.783,7.134,3.567,10.106,5.35v.594H18.289A1.279,1.279,0,0,1,17.1,17.856Z" transform="translate(10.84 21.38)"/><path class="u" d="M13.4,18.55c2.972-1.783,6.539-3.567,9.512-5.35v1.189c.594,4.756.594,4.756-4.756,4.756A11.589,11.589,0,0,0,13.4,18.55Z" transform="translate(-7.455 21.874)"/><path class="t" d="M16.2,23.567,23.334,20c1.189,2.378,1.189,4.756,1.783,7.728A40.981,40.981,0,0,0,16.2,23.567Z" transform="translate(6.39 55.499)"/><path class="r" d="M20.056,15.5a39.986,39.986,0,0,1,4.161,6.539H15.3C17.083,19.661,18.272,17.878,20.056,15.5Z" transform="translate(1.94 33.247)"/><path class="v" d="M24.537,18.8H15.62a.823.823,0,0,1,0-1.189c1.189-1.189,1.783-2.378,2.972-3.567s1.189-1.189,1.783,0C21.565,15.231,22.754,17.014,24.537,18.8Z" transform="translate(2.215 21.627)"/><path class="w" d="M16.083,20c2.378,1.189,4.756,1.783,6.539,3.567-2.378,1.189-5.35,2.378-8.323,3.567C14.3,24.756,15.489,22.378,16.083,20Z" transform="translate(-3.005 55.499)"/><path class="x" d="M25.526,19.872H15.42c-.594-.594,0-1.189,0-1.783,0-1.189.594-1.189,1.783-1.189h5.945C25.526,16.9,25.526,16.9,25.526,19.872Z" transform="translate(1.226 40.17)"/><path class="s" d="M27.879,24.167H14.8v-.594c2.378-1.189,4.161-1.783,6.539-2.972h1.189c2.378,1.783,3.567,2.378,5.35,3.567Z" transform="translate(-0.533 58.466)"/><path class="y" d="M15.3,24.112V14.6c1.783,1.189,2.378,2.972,3.567,4.756v.594c-1.189,1.189-1.783,2.378-3.567,4.161Z" transform="translate(1.94 28.797)"/><path class="z" d="M19.492,24.112c-1.189-1.189-1.783-2.972-2.972-4.161,0-.594-.594-.594,0-1.189,1.189-1.189,1.783-2.972,3.567-4.161a48.051,48.051,0,0,0-.594,9.512Z" transform="translate(6.665 28.797)"/><path class="aa" d="M15.771,12.2c1.189,1.189,1.783,2.378,2.972,3.567.594.594.594.594,0,1.189-1.189,1.189-1.783,2.378-2.972,3.567a19.588,19.588,0,0,1,0-8.323Z" transform="translate(2.063 16.929)"/><path class="ab" d="M19.767,21.117c-4.756-5.35-4.756-3.567,0-8.917Z" transform="translate(6.39 16.929)"/><path class="v" d="M13.7,14.361c2.972-1.783,5.35-2.972,7.728-4.161l.594.594c0,4.161,0,4.161-4.161,4.161A11.606,11.606,0,0,1,13.7,14.361Z" transform="translate(-5.972 7.04)"/><path class="w" d="M17.594,10.2a20.556,20.556,0,0,1,7.134,4.161v.594H18.189A1.279,1.279,0,0,1,17,13.767,6.437,6.437,0,0,0,17.594,10.2Z" transform="translate(10.346 7.04)"/><path class="ac" d="M15.4,10.1h8.323a25.856,25.856,0,0,1-3.567,4.161A16.026,16.026,0,0,1,15.4,10.1Z" transform="translate(2.434 6.545)"/><path class="ad" d="M15.889,18.8a21.117,21.117,0,0,1,5.35,2.378c-2.378,1.189-4.161,1.783-6.539,2.972A14.2,14.2,0,0,1,15.889,18.8Z" transform="translate(-1.027 49.565)"/><path class="ae" d="M22.345,23.556c-1.783-.594-3.567-1.783-5.945-2.378v-.594c1.783-.594,2.972-1.189,4.756-1.783,1.189,1.783.594,2.972,1.189,4.756Z" transform="translate(7.379 49.565)"/><path class="af" d="M15.6,14.4h5.945c-1.189,1.783-1.783,2.972-2.972,4.756C17.383,17.372,16.194,16.183,15.6,14.4Z" transform="translate(3.423 27.808)"/><path class="ac" d="M19.756,19.978A35.05,35.05,0,0,1,15,22.356c0-1.783.594-2.972.594-4.756A9.582,9.582,0,0,1,19.756,19.978Z" transform="translate(0.456 43.631)"/><path class="ag" d="M16.3,19.483A5.4,5.4,0,0,1,20.461,17.7c.594,1.189.594,2.972,1.189,4.161A21.117,21.117,0,0,1,16.3,19.483Z" transform="translate(6.885 44.126)"/><path class="ah" d="M15.424,10.4a15.762,15.762,0,0,1,3.567,2.972c-1.189.594-2.378.594-2.972,0C14.829,12.778,15.424,11.589,15.424,10.4Z" transform="translate(1.816 8.029)"/><path class="ai" d="M19.272,10.4c0,3.567,0,3.567-2.972,2.972C16.894,12.183,17.489,12.183,19.272,10.4Z" transform="translate(6.885 8.029)"/><path class="ac" d="M15.6,17.6h5.35C19.167,19.383,18.572,19.383,15.6,17.6Z" transform="translate(3.423 43.631)"/><path class="aj" d="M19.939,12.094h-5.35c-.594,0-1.189,0-1.189-.594h5.35C19.345,11.5,19.345,11.5,19.939,12.094Z" transform="translate(-7.455 13.468)"/><path class="ak" d="M23.845,12.094H19.089c-.594,0-1.189,0-1.189-.594h5.35C23.845,11.5,23.845,11.5,23.845,12.094Z" transform="translate(14.796 13.468)"/><path class="al" d="M24.639,15.194h-5.35c-.594,0-1.189,0-1.189-.594h5.35A1.841,1.841,0,0,0,24.639,15.194Z" transform="translate(15.785 28.797)"/><path class="am" d="M15.5,12.983c-.594-1.189,0-1.783.594-1.783h.594C16.694,12.389,16.1,12.389,15.5,12.983Z" transform="translate(1.735 11.985)"/><path class="an" d="M17.889,12.389c-.594,0-.594.594,0,0-.594.594-1.189,0-1.189-.594s0-.594.594-.594A2.076,2.076,0,0,1,17.889,12.389Z" transform="translate(8.863 11.985)"/><path class="ao" d="M19.289,15.694c-.594,0-.594,0-1.189-.594h6.539c-.594.594-1.189.594-2.378.594Z" transform="translate(15.785 31.269)"/><path class="ap" d="M18.156,11.9c.594,0,1.189,0,1.189,1.189h-5.35a.594.594,0,1,1,0-1.189Z" transform="translate(-7.455 15.446)"/><path class="aq" d="M18.2,13.089c-.594-.594,0-1.189.594-1.189h4.161c.594,0,.594,0,.594.594a.582.582,0,0,1-.594.594Z" transform="translate(15.086 15.446)"/><path class="ar" d="M18.945,15.42H13C15.378,14.825,17.161,15.42,18.945,15.42Z" transform="translate(-9.433 31.544)"/><path class="as" d="M13.594,15.614c-.594,0-.594,0-.594-.594,1.783-.594,3.567,0,5.945,0,.594,0,0,.594,0,.594h0C17.161,15.02,15.378,15.614,13.594,15.614Z" transform="translate(-9.433 29.566)"/></g><g transform="translate(73.626 43.461)"><path class="b" d="M46.285,50.7h.594a.594.594,0,1,0,0-1.189h-5.35A1.279,1.279,0,0,0,40.34,50.7v6.539c-.594,5.35,1.189,10.7,2.378,16.051S44.5,83.393,45.691,88.744a4.541,4.541,0,0,0,1.189,2.972c1.783,4.756,4.161,8.917,5.945,13.673.594.594.594,1.783,1.783,1.783.594,0,1.189.594.594,1.189,0,.594-.594.594-1.189.594H45.691c-.594,0-1.189,0-1.189-.594s0-1.189,1.189-1.189h.594c0-.594-.594-1.189-.594-1.783L36.774,92.9c-1.783-2.378-4.161-2.378-5.945,0-3.567,4.756-6.539,9.512-10.106,14.268a2.184,2.184,0,0,0,1.783.594c.594,0,.594.594.594,1.189a.582.582,0,0,1-.594.594H13.589c-.594,0-1.189,0-1.189-.594s0-1.189.594-1.189c1.189,0,1.189-.594,1.783-1.783,2.378-4.756,4.161-9.512,6.539-14.862,1.189-2.378,1.189-5.35,1.783-8.323,1.189-5.945,2.972-11.3,4.161-17.24a16.458,16.458,0,0,0,.594-5.35V50.7c0-2.378,0-2.378-2.378-2.378H21.912a1.279,1.279,0,0,0-1.189,1.189c-.594,1.783-2.378,1.189-3.567.594,0,0-.594-.594,0-.594,0-.594,0-1.189-.594-1.189h-.594c-.594,0-1.783.594-1.783-.594a1.279,1.279,0,0,1,1.189-1.189c3.567-1.783,7.728-4.161,11.3-5.945a3.269,3.269,0,0,0,1.783-2.972V31.674a1.576,1.576,0,0,0-1.783-1.783H24.29c-.594,0-.594,0-.594.594s0,.594.594.594c1.189,0,1.783.594,1.189,1.189H24.29c-1.783-.594-4.161,0-5.945-.594a.582.582,0,0,1-.594-.594h.594c.594,0,.594,0,.594-.594s0-.594-.594-.594H17.156c-.594,0-1.189,0-1.189-.594s.594-.594,1.189-1.189l8.917-5.35c1.189-.594,1.783-1.189,1.783-2.378,1.189-1.783,2.378-4.161,3.567-5.945,1.189-1.189,1.189-2.378,1.189-4.161V8.489c0-.594,0-1.189.594-1.189s.594.594.594,1.189v.594a7.646,7.646,0,0,0,2.378,7.134c1.189,1.783,2.378,2.972,2.972,4.756,0,.594,1.189.594,1.189,1.189,2.972,1.783,5.945,2.972,8.323,4.756a2.076,2.076,0,0,1,1.189.594c.594.594.594,1.189-.594,1.189h-.594c-.594,0-.594,0-.594.594s0,.594.594.594h1.189c.594.594.594,1.189,0,1.189h-.594c-1.783-.594-3.567,0-5.945-.594a.582.582,0,0,1-.594-.594h.594c.594,0,.594,0,.594-.594a.582.582,0,0,0-.594-.594H39.152a1.279,1.279,0,0,0-1.189,1.189v7.728c0,1.189.594,1.189,1.783,1.783,3.567,1.783,7.728,4.161,11.3,5.945.594.594,1.783.594,1.783,1.189,0,1.189-1.189.594-1.783.594s-1.189,0-1.189.594.594.594,1.189.594c1.189,0,1.189.594.594,1.189H50.447c-1.783-.594-4.161,0-5.945-.594C46.285,51.291,45.691,51.291,46.285,50.7Z" transform="translate(-12.4 -7.3)"/><path class="c" d="M24.245,15.1c0,.594,0,1.189-.594,1.189-1.189,0-1.783.594-1.189,1.783,0,1.189-.594,1.189-1.189,1.189H20.083c-1.783,0-1.783,0-1.783-1.783V15.694c1.783-.594,3.567,0,4.756-.594Z" transform="translate(16.774 31.269)"/><path class="c" d="M18.95,12.965c-.594,0-1.783,0-1.189,1.189a1.576,1.576,0,0,1-1.783,1.783c-2.378,0-2.378,0-2.378-2.972v-.594a8.248,8.248,0,0,1,5.35,0Z" transform="translate(-6.466 15.57)"/><path class="c" d="M22.756,13.065v1.189c0,1.783,0,1.783-1.783,1.783s-1.783,0-2.378-1.783c0-.594,0-.594-.594-1.189v-.594a5.078,5.078,0,0,1,4.161,0C22.756,12.471,22.756,12.471,22.756,13.065Z" transform="translate(15.291 16.064)"/><path class="b" d="M17.361,16.513V17.7c0,.594,0,1.189-1.189,1.189H14.983c-1.783,0-1.783,0-1.783-1.783v-.594C14.389,14.729,16.172,14.729,17.361,16.513Z" transform="translate(-8.444 31.64)"/><path class="d" d="M18.845,17.872c-1.189-1.189-2.378-.594-4.161,0h0c-.594-.594-1.783,0-1.783-1.189s1.189-1.189,1.783-1.189a10.117,10.117,0,0,0,4.161-.594h0c0,.594.594.594,1.189.594a.594.594,0,1,1,0,1.189C19.439,17.278,18.845,17.278,18.845,17.872Z" transform="translate(-9.928 30.28)"/><path class="e" d="M14.683,15.194c1.189,0,2.378.594,3.567-.594h.594c.594,0,1.783,0,1.783,1.189s-1.189.594-1.783.594h0v-.594c-1.783,0-3.567.594-5.35,0a.582.582,0,0,1-.594-.594,1.115,1.115,0,0,1,1.783,0Z" transform="translate(-9.928 28.797)"/><path class="f" d="M17.981,12.913h0V14.1a5.027,5.027,0,0,1-4.161,0s-.594-.594,0-.594v-.594C15.009,11.129,16.2,11.129,17.981,12.913Z" transform="translate(-6.686 13.839)"/><path class="g" d="M22.681,15.642h0c-1.189,2.378-2.378,1.189-4.161,1.189,0,0-.594-.594,0-.594v-.594A2.873,2.873,0,0,1,22.681,15.642Z" transform="translate(16.554 29.539)"/><path class="f" d="M18,12.984h0c1.189-1.783,2.972-1.783,4.161-.594v1.189a5.027,5.027,0,0,1-4.161,0Z" transform="translate(15.291 13.768)"/><path class="b" d="M17.856,15.294h0c-1.189,1.783-2.378,1.783-4.161.594l-.594-.594V14.7C14.883,15.294,16.667,14.7,17.856,15.294Z" transform="translate(-8.939 29.291)"/><path class="h" d="M19.321,13.283a5.078,5.078,0,0,0-4.161,0H13.971c-.594-.594-1.189-1.189,0-1.783a.582.582,0,0,1,.594.594c2.378.594,4.161,0,6.539.594l.594.594C20.51,13.283,19.916,12.689,19.321,13.283Z" transform="translate(-8.026 13.468)"/><path class="i" d="M24.021,16.383a5.078,5.078,0,0,0-4.161,0H18.671c-.594-.594-1.189-1.189,0-1.783l.594.594c2.378.594,4.161,0,6.539.594l.594.594C25.21,16.978,24.616,16.383,24.021,16.383Z" transform="translate(15.214 28.797)"/><path class="j" d="M23.521,13.778a5.078,5.078,0,0,0-4.161,0c-.594,0-1.189,0-1.189-.594a1.115,1.115,0,0,1,0-1.783l.594.594c1.783.594,4.161,0,5.945.594l.594.594C24.71,13.778,24.116,13.183,23.521,13.778Z" transform="translate(13.931 12.974)"/><path class="k" d="M19.289,15.594c1.189,0,2.972.594,4.161-.594a2.184,2.184,0,0,1,1.783.594l-.594.594c-2.378.594-4.161,0-6.539,0C18.1,15,18.694,15,19.289,15.594Z" transform="translate(15.785 30.775)"/><path class="d" d="M18.7,12.394h0a.582.582,0,0,1,.594-.594c.594,0,1.189,0,1.189,1.189,0,.594-.594.594-1.189.594H18.7V12.394Z" transform="translate(18.752 14.952)"/><path class="l" d="M19.483,11.8h0c0,.594-.594,1.189-.594,1.783v.594c-.594,0-1.189,0-1.189-.594a1.279,1.279,0,0,1,1.189-1.189Z" transform="translate(13.807 14.952)"/><path class="m" d="M19.783,15.471c-.594,0-.594,0-1.189.594a1.841,1.841,0,0,1,1.189.594v.594h-.594c-.594,0-1.189,0-1.189-1.189s.594-1.189,1.783-.594c-.594-.594,0-.594,0,0Z" transform="translate(15.291 30.898)"/><path class="n" d="M14.983,11.8h0v1.783h-.594c-.594,0-1.189,0-1.189-1.189a2.6,2.6,0,0,1,1.783-.594Z" transform="translate(-8.444 14.952)"/><path class="o" d="M14.2,12.394h0a1.841,1.841,0,0,1,1.189-.594c1.189.594,1.189.594,0,1.783v-.594A1.841,1.841,0,0,1,14.2,12.394Z" transform="translate(-3.499 14.952)"/><path class="m" d="M14.283,15.889h0c-1.189.594-1.783.594-1.189-1.189l.594.594A.582.582,0,0,1,14.283,15.889Z" transform="translate(-10.122 29.291)"/><path class="p" d="M16.7,21.5h5.35c.594,0,1.189,0,1.189.594,2.378,4.756,4.161,9.512,6.539,14.267a3.676,3.676,0,0,1-4.161-1.189c-2.378-3.567-5.35-7.728-7.728-11.3A3.088,3.088,0,0,1,16.7,21.5Z" transform="translate(8.863 62.916)"/><path class="q" d="M26.179,21.5a3.089,3.089,0,0,1-1.189,2.378c-2.378,3.567-5.35,7.728-7.728,11.3-1.189,1.783-2.378,2.378-4.161,1.783,0-.594.594-1.189.594-1.783a91.463,91.463,0,0,0,4.756-11.3,2.746,2.746,0,0,1,2.972-1.783A13.089,13.089,0,0,1,26.179,21.5Z" transform="translate(-8.939 62.916)"/><path class="q" d="M29.562,22.372c-2.378,1.189-4.161,1.783-6.539,2.972H21.239c-2.378-1.189-4.161-1.783-6.539-2.972A66.671,66.671,0,0,1,22.428,19.4h1.189c1.783.594,4.161,1.189,5.945,2.972Z" transform="translate(-1.027 52.532)"/><path class="q" d="M24.094,14.767h0a32.671,32.671,0,0,1-4.161,5.35c-.594.594-.594,0-1.189-.594a18.065,18.065,0,0,1-2.972-4.161c-.594-.594-.594-1.189,0-1.189l2.378-2.378c.594-.594,1.189-.594,2.378-.594l3.567,3.567Z" transform="translate(2.063 11.985)"/><path class="r" d="M20.056,8.7c1.189,2.378,2.972,4.161,4.161,6.539-1.783.594-5.945.594-8.917.594A24.872,24.872,0,0,1,20.056,8.7Z" transform="translate(1.94 -0.377)"/><path class="s" d="M15.1,20.825c7.134-3.567,4.161-3.567,11.3,0C22.828,23.8,19.856,23.8,15.1,20.825Z" transform="translate(0.951 46.351)"/><path class="t" d="M17.1,13.1c3.567,1.783,7.134,3.567,10.106,5.35v.594H18.289A1.279,1.279,0,0,1,17.1,17.856Z" transform="translate(10.84 21.38)"/><path class="u" d="M13.4,18.55c2.972-1.783,6.539-3.567,9.512-5.35v1.189c.594,4.756.594,4.756-4.756,4.756A11.589,11.589,0,0,0,13.4,18.55Z" transform="translate(-7.455 21.874)"/><path class="t" d="M16.2,23.567,23.334,20c1.189,2.378,1.189,4.756,1.783,7.728A40.981,40.981,0,0,0,16.2,23.567Z" transform="translate(6.39 55.499)"/><path class="r" d="M20.056,15.5a39.986,39.986,0,0,1,4.161,6.539H15.3C17.083,19.661,18.272,17.878,20.056,15.5Z" transform="translate(1.94 33.247)"/><path class="v" d="M24.537,18.8H15.62a.823.823,0,0,1,0-1.189c1.189-1.189,1.783-2.378,2.972-3.567s1.189-1.189,1.783,0C21.565,15.231,22.754,17.014,24.537,18.8Z" transform="translate(2.215 21.627)"/><path class="w" d="M16.083,20c2.378,1.189,4.756,1.783,6.539,3.567-2.378,1.189-5.35,2.378-8.323,3.567C14.3,24.756,15.489,22.378,16.083,20Z" transform="translate(-3.005 55.499)"/><path class="x" d="M25.526,19.872H15.42c-.594-.594,0-1.189,0-1.783,0-1.189.594-1.189,1.783-1.189h5.945C25.526,16.9,25.526,16.9,25.526,19.872Z" transform="translate(1.226 40.17)"/><path class="s" d="M27.879,24.167H14.8v-.594c2.378-1.189,4.161-1.783,6.539-2.972h1.189c2.378,1.783,3.567,2.378,5.35,3.567Z" transform="translate(-0.533 58.466)"/><path class="y" d="M15.3,24.112V14.6c1.783,1.189,2.378,2.972,3.567,4.756v.594c-1.189,1.189-1.783,2.378-3.567,4.161Z" transform="translate(1.94 28.797)"/><path class="z" d="M19.492,24.112c-1.189-1.189-1.783-2.972-2.972-4.161,0-.594-.594-.594,0-1.189,1.189-1.189,1.783-2.972,3.567-4.161a48.051,48.051,0,0,0-.594,9.512Z" transform="translate(6.665 28.797)"/><path class="aa" d="M15.771,12.2c1.189,1.189,1.783,2.378,2.972,3.567.594.594.594.594,0,1.189-1.189,1.189-1.783,2.378-2.972,3.567a19.588,19.588,0,0,1,0-8.323Z" transform="translate(2.063 16.929)"/><path class="ab" d="M19.767,21.117c-4.756-5.35-4.756-3.567,0-8.917Z" transform="translate(6.39 16.929)"/><path class="v" d="M13.7,14.361c2.972-1.783,5.35-2.972,7.728-4.161l.594.594c0,4.161,0,4.161-4.161,4.161A11.606,11.606,0,0,1,13.7,14.361Z" transform="translate(-5.972 7.04)"/><path class="w" d="M17.594,10.2a20.556,20.556,0,0,1,7.134,4.161v.594H18.189A1.279,1.279,0,0,1,17,13.767,6.437,6.437,0,0,0,17.594,10.2Z" transform="translate(10.346 7.04)"/><path class="ac" d="M15.4,10.1h8.323a25.856,25.856,0,0,1-3.567,4.161A16.026,16.026,0,0,1,15.4,10.1Z" transform="translate(2.434 6.545)"/><path class="ad" d="M15.889,18.8a21.117,21.117,0,0,1,5.35,2.378c-2.378,1.189-4.161,1.783-6.539,2.972A14.2,14.2,0,0,1,15.889,18.8Z" transform="translate(-1.027 49.565)"/><path class="ae" d="M22.345,23.556c-1.783-.594-3.567-1.783-5.945-2.378v-.594c1.783-.594,2.972-1.189,4.756-1.783,1.189,1.783.594,2.972,1.189,4.756Z" transform="translate(7.379 49.565)"/><path class="af" d="M15.6,14.4h5.945c-1.189,1.783-1.783,2.972-2.972,4.756C17.383,17.372,16.194,16.183,15.6,14.4Z" transform="translate(3.423 27.808)"/><path class="ac" d="M19.756,19.978A35.05,35.05,0,0,1,15,22.356c0-1.783.594-2.972.594-4.756A9.582,9.582,0,0,1,19.756,19.978Z" transform="translate(0.456 43.631)"/><path class="ag" d="M16.3,19.483A5.4,5.4,0,0,1,20.461,17.7c.594,1.189.594,2.972,1.189,4.161A21.117,21.117,0,0,1,16.3,19.483Z" transform="translate(6.885 44.126)"/><path class="ah" d="M15.424,10.4a15.762,15.762,0,0,1,3.567,2.972c-1.189.594-2.378.594-2.972,0C14.829,12.778,15.424,11.589,15.424,10.4Z" transform="translate(1.816 8.029)"/><path class="ai" d="M19.272,10.4c0,3.567,0,3.567-2.972,2.972C16.894,12.183,17.489,12.183,19.272,10.4Z" transform="translate(6.885 8.029)"/><path class="ac" d="M15.6,17.6h5.35C19.167,19.383,18.572,19.383,15.6,17.6Z" transform="translate(3.423 43.631)"/><path class="aj" d="M19.939,12.094h-5.35c-.594,0-1.189,0-1.189-.594h5.35C19.345,11.5,19.345,11.5,19.939,12.094Z" transform="translate(-7.455 13.468)"/><path class="ak" d="M23.845,12.094H19.089c-.594,0-1.189,0-1.189-.594h5.35C23.845,11.5,23.845,11.5,23.845,12.094Z" transform="translate(14.796 13.468)"/><path class="al" d="M24.639,15.194h-5.35c-.594,0-1.189,0-1.189-.594h5.35A1.841,1.841,0,0,0,24.639,15.194Z" transform="translate(15.785 28.797)"/><path class="am" d="M15.5,12.983c-.594-1.189,0-1.783.594-1.783h.594C16.694,12.389,16.1,12.389,15.5,12.983Z" transform="translate(1.735 11.985)"/><path class="an" d="M17.889,12.389c-.594,0-.594.594,0,0-.594.594-1.189,0-1.189-.594s0-.594.594-.594A2.076,2.076,0,0,1,17.889,12.389Z" transform="translate(8.863 11.985)"/><path class="ao" d="M19.289,15.694c-.594,0-.594,0-1.189-.594h6.539c-.594.594-1.189.594-2.378.594Z" transform="translate(15.785 31.269)"/><path class="ap" d="M18.156,11.9c.594,0,1.189,0,1.189,1.189h-5.35a.594.594,0,1,1,0-1.189Z" transform="translate(-7.455 15.446)"/><path class="aq" d="M18.2,13.089c-.594-.594,0-1.189.594-1.189h4.161c.594,0,.594,0,.594.594a.582.582,0,0,1-.594.594Z" transform="translate(15.086 15.446)"/><path class="ar" d="M18.945,15.42H13C15.378,14.825,17.161,15.42,18.945,15.42Z" transform="translate(-9.433 31.544)"/><path class="as" d="M13.594,15.614c-.594,0-.594,0-.594-.594,1.783-.594,3.567,0,5.945,0,.594,0,0,.594,0,.594h0C17.161,15.02,15.378,15.614,13.594,15.614Z" transform="translate(-9.433 29.566)"/></g></g></svg>